REM DIRINDEX 1\2,1\4,1\5,1\6,1\7,1\3\8,1\3\9,1\3\10
REM DIRNAME folder01,folder02,folder03,folder04,folder05,folder06,folder07,folder08,folder09,folder10
TITLE ""
FILE "DB4500_5th_2A_28.mp3" MP3
  TRACK 01 AUDIO
    TITLE "0:"
    INDEX 01 00:00:00
  TRACK 02 AUDIO
    TITLE "8:cjc113_1055"
    INDEX 01 00:00:01
  TRACK 03 AUDIO
    TITLE "0:"
    INDEX 01 00:01:13
  TRACK 04 AUDIO
    TITLE "9:cjc113_1056"
    INDEX 01 00:01:36
  TRACK 05 AUDIO
    TITLE "0:"
    INDEX 01 00:02:47
  TRACK 06 AUDIO
    TITLE "10:cjc113_1057"
    INDEX 01 00:02:69
  TRACK 07 AUDIO
    TITLE "0:"
    INDEX 01 00:05:18
  TRACK 08 AUDIO
    TITLE "10:cjc113_1058"
    INDEX 01 00:05:44
  TRACK 09 AUDIO
    TITLE "0:"
    INDEX 01 00:07:60
  TRACK 10 AUDIO
    TITLE "8:cjc113_1059"
    INDEX 01 00:08:32
  TRACK 11 AUDIO
    TITLE "0:"
    INDEX 01 00:09:45
  TRACK 12 AUDIO
    TITLE "9:cjc113_1060"
    INDEX 01 00:09:67
  TRACK 13 AUDIO
    TITLE "0:"
    INDEX 01 00:11:17
  TRACK 14 AUDIO
    TITLE "10:cjc113_1061"
    INDEX 01 00:11:39
  TRACK 15 AUDIO
    TITLE "0:"
    INDEX 01 00:14:41
  TRACK 16 AUDIO
    TITLE "8:cjc113_1062"
    INDEX 01 00:15:15
  TRACK 17 AUDIO
    TITLE "0:"
    INDEX 01 00:16:28
  TRACK 18 AUDIO
    TITLE "9:cjc113_1063"
    INDEX 01 00:16:51
  TRACK 19 AUDIO
    TITLE "0:"
    INDEX 01 00:17:72
  TRACK 20 AUDIO
    TITLE "10:cjc113_1064"
    INDEX 01 00:18:19
  TRACK 21 AUDIO
    TITLE "0:"
    INDEX 01 00:21:53
  TRACK 22 AUDIO
    TITLE "8:cjc113_1065"
    INDEX 01 00:22:25
  TRACK 23 AUDIO
    TITLE "0:"
    INDEX 01 00:23:28
  TRACK 24 AUDIO
    TITLE "9:cjc113_1066"
    INDEX 01 00:23:51
  TRACK 25 AUDIO
    TITLE "0:"
    INDEX 01 00:25:01
  TRACK 26 AUDIO
    TITLE "10:cjc113_1067"
    INDEX 01 00:25:21
  TRACK 27 AUDIO
    TITLE "0:"
    INDEX 01 00:27:65
  TRACK 28 AUDIO
    TITLE "8:cjc113_1068"
    INDEX 01 00:28:39
  TRACK 29 AUDIO
    TITLE "0:"
    INDEX 01 00:29:58
  TRACK 30 AUDIO
    TITLE "9:cjc113_1069"
    INDEX 01 00:30:06
  TRACK 31 AUDIO
    TITLE "0:"
    INDEX 01 00:31:26
  TRACK 32 AUDIO
    TITLE "10:cjc113_1070"
    INDEX 01 00:31:47
  TRACK 33 AUDIO
    TITLE "0:"
    INDEX 01 00:34:43
  TRACK 34 AUDIO
    TITLE "8:cjc113_1071"
    INDEX 01 00:35:15
  TRACK 35 AUDIO
    TITLE "0:"
    INDEX 01 00:36:29
  TRACK 36 AUDIO
    TITLE "9:cjc113_1072"
    INDEX 01 00:36:48
  TRACK 37 AUDIO
    TITLE "0:"
    INDEX 01 00:38:04
  TRACK 38 AUDIO
    TITLE "10:cjc113_1073"
    INDEX 01 00:38:30
  TRACK 39 AUDIO
    TITLE "0:"
    INDEX 01 00:41:44
  TRACK 40 AUDIO
    TITLE "8:cjc113_1074"
    INDEX 01 00:42:21
  TRACK 41 AUDIO
    TITLE "0:"
    INDEX 01 00:43:29
  TRACK 42 AUDIO
    TITLE "9:cjc113_1075"
    INDEX 01 00:43:50
  TRACK 43 AUDIO
    TITLE "0:"
    INDEX 01 00:44:61
  TRACK 44 AUDIO
    TITLE "10:cjc113_1076"
    INDEX 01 00:45:06
  TRACK 45 AUDIO
    TITLE "0:"
    INDEX 01 00:47:68
  TRACK 46 AUDIO
    TITLE "8:cjc113_1077"
    INDEX 01 00:48:36
  TRACK 47 AUDIO
    TITLE "0:"
    INDEX 01 00:49:59
  TRACK 48 AUDIO
    TITLE "9:cjc113_1078"
    INDEX 01 00:49:74
  TRACK 49 AUDIO
    TITLE "0:"
    INDEX 01 00:51:11
  TRACK 50 AUDIO
    TITLE "10:cjc113_1079"
    INDEX 01 00:51:28
  TRACK 51 AUDIO
    TITLE "0:"
    INDEX 01 00:55:22
  TRACK 52 AUDIO
    TITLE "8:cjc113_1080"
    INDEX 01 00:55:69
  TRACK 53 AUDIO
    TITLE "0:"
    INDEX 01 00:56:72
  TRACK 54 AUDIO
    TITLE "9:cjc113_1081"
    INDEX 01 00:57:15
  TRACK 55 AUDIO
    TITLE "0:"
    INDEX 01 00:58:36
  TRACK 56 AUDIO
    TITLE "10:cjc113_1082"
    INDEX 01 00:58:52
  TRACK 57 AUDIO
    TITLE "0:"
    INDEX 01 01:01:64
  TRACK 58 AUDIO
    TITLE "8:cjc113_1083"
    INDEX 01 01:02:34
  TRACK 59 AUDIO
    TITLE "0:"
    INDEX 01 01:03:37
  TRACK 60 AUDIO
    TITLE "9:cjc113_1084"
    INDEX 01 01:03:55
  TRACK 61 AUDIO
    TITLE "0:"
    INDEX 01 01:04:70
  TRACK 62 AUDIO
    TITLE "10:cjc113_1085"
    INDEX 01 01:05:13
  TRACK 63 AUDIO
    TITLE "0:"
    INDEX 01 01:08:56
  TRACK 64 AUDIO
    TITLE "8:cjc113_1086"
    INDEX 01 01:09:24
  TRACK 65 AUDIO
    TITLE "0:"
    INDEX 01 01:10:30
  TRACK 66 AUDIO
    TITLE "9:cjc113_1087"
    INDEX 01 01:10:47
  TRACK 67 AUDIO
    TITLE "0:"
    INDEX 01 01:12:05
  TRACK 68 AUDIO
    TITLE "10:cjc113_1088"
    INDEX 01 01:12:23
  TRACK 69 AUDIO
    TITLE "0:"
    INDEX 01 01:15:05
  TRACK 70 AUDIO
    TITLE "8:cjc113_1089"
    INDEX 01 01:15:50
  TRACK 71 AUDIO
    TITLE "0:"
    INDEX 01 01:16:63
  TRACK 72 AUDIO
    TITLE "9:cjc113_1090"
    INDEX 01 01:17:06
  TRACK 73 AUDIO
    TITLE "0:"
    INDEX 01 01:18:35
  TRACK 74 AUDIO
    TITLE "10:cjc113_1091"
    INDEX 01 01:18:56
  TRACK 75 AUDIO
    TITLE "0:"
    INDEX 01 01:23:44
  TRACK 76 AUDIO
    TITLE "8:cjc113_1092"
    INDEX 01 01:24:14
  TRACK 77 AUDIO
    TITLE "0:"
    INDEX 01 01:25:15
  TRACK 78 AUDIO
    TITLE "9:cjc113_1093"
    INDEX 01 01:25:33
  TRACK 79 AUDIO
    TITLE "0:"
    INDEX 01 01:26:68
  TRACK 80 AUDIO
    TITLE "10:cjc113_1094"
    INDEX 01 01:27:10
  TRACK 81 AUDIO
    TITLE "0:"
    INDEX 01 01:29:52
